<?xml version="1.0" encoding="UTF-8"?>
<!DOCTYPE svg PUBLIC "-//W3C//DTD SVG 1.1//EN" "http://www.w3.org/Graphics/SVG/1.1/DTD/svg11.dtd">
<!-- Creator: CorelDRAW X7 -->
<svg xmlns="http://www.w3.org/2000/svg" xml:space="preserve" width="6in" height="6in" version="1.1" style="shape-rendering:geometricPrecision; text-rendering:geometricPrecision; image-rendering:optimizeQuality; fill-rule:evenodd; clip-rule:evenodd"
viewBox="0 0 6000 6000"
 xmlns:xlink="http://www.w3.org/1999/xlink">
 <defs>
  <style type="text/css">
   <![CDATA[
    .fil0 {fill:#373435}
   ]]>
  </style>
 </defs>
 <g id="Layer_x0020_1">
  <metadata id="CorelCorpID_0Corel-Layer"/>
  <g id="_818292112">
   <g>
    <path class="fil0" d="M2850 2415l82 -15 -34 50 -48 -35zm-260 -1c-8,4 -35,31 -37,47 -2,13 -16,33 -26,44 -14,15 -20,3 -52,74l62 42c15,-14 77,-106 98,-135 36,-50 13,-38 97,-52 11,-2 37,21 47,28 29,21 123,85 136,99l130 -179c-55,-69 -173,-151 -246,-204 -11,-8 -14,-9 -26,-16l-139 -80c-113,-58 -251,-107 -383,-119 -64,-5 -105,-2 -152,-5 8,15 10,7 39,16 16,4 28,8 42,13 28,12 51,20 79,32 85,40 138,83 199,148 49,52 121,178 132,247z"/>
    <path class="fil0" d="M3229 1856l0 0zm0 0c-5,-51 64,-158 94,-200 23,-32 42,-56 70,-85l79 -79c-120,20 -293,136 -349,235 -52,92 -100,308 -112,407 -4,32 -4,61 -7,94 -4,64 5,49 94,129 31,27 175,120 194,141l46 -62c-17,-22 -43,-46 -64,-53 -34,-10 -50,-51 -91,-64 -15,-90 8,-203 41,-279 55,-129 141,-209 250,-289 23,-16 31,-17 37,-29 -34,5 -92,-10 -168,40 -47,32 -50,39 -87,70 -10,9 -17,16 -27,24z"/>
    <path class="fil0" d="M2093 1544c13,12 195,55 297,182 22,29 14,32 46,54 20,15 38,21 57,38l28 23c38,32 92,91 121,131 15,21 70,104 89,117 20,14 37,23 57,38 11,7 19,13 29,20 13,10 18,11 31,19 20,12 97,69 117,78 3,-8 4,-96 0,-118l-79 -98c-26,-33 -53,-63 -81,-96 -75,-88 -261,-306 -378,-366 -34,-18 -50,-23 -88,-34 -74,-21 -137,-10 -212,2 -19,4 -17,7 -34,10z"/>
    <path class="fil0" d="M2978 2084c1,-17 8,-36 12,-52l99 -377c21,-86 68,-223 129,-291l65 -82c-105,17 -185,40 -260,116 -27,27 -56,63 -75,95 -25,42 -31,73 -41,124 -7,42 -19,87 -29,128l-36 165c-2,14 1,13 11,26 8,11 11,15 20,25 21,26 83,113 105,123z"/>
    <path class="fil0" d="M2561 1482l12 73c11,63 -13,70 26,101 9,7 19,17 27,24l96 103c11,13 36,48 49,55 -14,-85 -28,-169 -43,-254 -13,-79 -15,-176 -48,-240 -36,-70 -66,-104 -124,-145 -52,-38 -133,-46 -202,-35 17,23 43,42 63,63 77,79 125,139 144,255z"/>
    <path class="fil0" d="M2808 1871c10,-10 47,-165 55,-191 30,-101 21,-61 -1,-193 -23,-137 25,-319 112,-415 10,-10 11,-9 17,-22 -61,12 -138,62 -181,108 -84,88 -105,184 -71,302l69 411z"/>
    <path class="fil0" d="M2682 2066c-24,-59 -117,-161 -171,-205 -41,-33 -104,-68 -151,-89 -82,-37 -201,-61 -288,-47 6,14 3,8 15,13 82,34 138,57 209,119 88,78 35,75 137,107 49,16 118,46 166,67 24,11 59,34 83,35z"/>
    <path class="fil0" d="M3014 3372l33 -49 49 33 -34 51 -48 -35zm-112 17l180 130 126 -180 -180 -130 -126 180z"/>
    <path class="fil0" d="M2587 2900l49 33 -33 49 -49 -33 33 -49zm-143 63c8,17 27,25 41,35 29,20 118,87 136,95l129 -179 -179 -126 -127 175z"/>
    <path class="fil0" d="M2899 3597l49 33 -35 51 -49 -33 35 -51zm-145 65l180 131 126 -180 -180 -130 -126 179z"/>
    <path class="fil0" d="M3243 3583l35 -51 50 37 -34 49 -51 -35zm-112 17l180 130 126 -180 -180 -130 -126 180z"/>
    <path class="fil0" d="M3345 2773l49 33 -33 49 -49 -33 33 -49zm-145 66l177 128 131 -180 -180 -126 -128 178z"/>
    <path class="fil0" d="M3079 2625l33 -49 50 34 -35 51 -48 -36zm-112 17l180 130 126 -179 -177 -128 -129 177z"/>
    <path class="fil0" d="M2751 3857c15,2 40,22 50,32 -1,14 -24,44 -35,53l-48 -36 33 -49zm-143 67l176 127c17,-9 123,-164 129,-177l-179 -129 -126 179z"/>
    <path class="fil0" d="M2781 3158c15,-15 21,-39 40,-47l46 31c-2,14 -25,44 -36,54l-50 -38zm-108 16c8,17 27,25 41,35 16,11 29,20 45,32 23,16 69,53 90,63l130 -179 -180 -126 -126 175z"/>
    <path class="fil0" d="M3144 3880l-47 -36 35 -51 49 33 -37 54zm-157 -21l177 128c15,-14 77,-104 97,-132 10,-15 27,-29 28,-48l-174 -126 -128 178z"/>
    <path class="fil0" d="M3210 3134c-15,-16 -39,-21 -48,-41l34 -50 50 37 -36 54zm-158 -21l177 128c15,-14 77,-104 97,-133 10,-14 27,-28 29,-47l-175 -126 -128 178z"/>
    <path class="fil0" d="M3509 3730l51 35 -35 51 -50 -37 34 -49zm-143 68l175 126 130 -180 -177 -124 -128 178z"/>
    <path class="fil0" d="M2633 3435l35 -51 51 35 -34 51 -52 -35zm-108 17l178 128 128 -178 -179 -126 -127 176z"/>
    <path class="fil0" d="M3391 3309l35 -51 51 35 -35 51 -51 -35zm-110 18l178 129 126 -180 -175 -126 -129 177z"/>
    <path class="fil0" d="M2698 2689l35 -51 52 35 -35 51 -52 -35zm-108 16l176 127 130 -180 -177 -124 -129 177z"/>
    <path class="fil0" d="M2929 2884l39 -52 49 37 -35 52 -53 -37zm-106 18l175 127 129 -178 -180 -126 -124 177z"/>
    <path class="fil0" d="M2439 3173l52 35 -36 48 -49 -33 33 -50zm34 194l129 -179 -179 -126c-16,15 -38,50 -52,69 -13,18 -11,18 -10,44 0,15 1,41 2,56 7,73 -2,58 37,85 20,14 53,42 73,51z"/>
    <path class="fil0" d="M3538 3031l36 -47 51 35 -35 47 -52 -35zm-111 21l179 126 62 -83c9,-13 5,-5 2,-20 -4,-20 -8,-39 -13,-54 -7,-24 -19,-86 -30,-99 -8,-8 -61,-44 -71,-49l-129 179z"/>
    <path class="fil0" d="M2485 3709l35 -51 51 35 -34 51 -52 -35zm-39 -80c16,39 29,79 46,118 12,25 41,90 58,109 17,-8 25,-28 36,-43 20,-29 88,-119 96,-138l-178 -125 -58 79z"/>
    <path class="fil0" d="M3512 3536l175 127c-1,-27 21,-111 16,-150l-32 42 -51 -35 35 -51 49 33c3,-9 8,-84 1,-94 -3,-5 -59,-43 -67,-46l-126 174z"/>
    <path class="fil0" d="M3345 2580l179 129c10,-20 7,-17 -15,-54 -11,-18 -22,-37 -33,-53 -13,-17 -22,-33 -35,-51l-37 -48c-14,6 -52,63 -59,77z"/>
    <path class="fil0" d="M2386 2899l130 -179 -77 -57c-17,38 -26,76 -38,117l-20 91c-3,20 -5,16 5,28z"/>
    <polygon class="fil0" points="3253,4018 3469,3983 3344,3892 "/>
    <polygon class="fil0" points="2876,4081 3088,4047 2963,3956 "/>
    <path class="fil0" d="M2411 3519l40 -53 -59 -43c5,38 13,61 19,96z"/>
    <path class="fil0" d="M3661 3263c6,6 35,32 41,25l-5 -71c-13,6 -30,33 -36,46z"/>
   </g>
   <g>
    <path class="fil0" d="M3781 1465l0 0zm0 0l60 53c22,20 76,79 96,107 16,22 38,44 65,82 16,23 32,45 46,69 60,103 68,114 121,235 91,213 145,531 100,840 -21,150 -55,259 -102,380l-76 160c-30,52 -53,96 -90,145 -9,12 -15,22 -24,33 -34,42 -52,72 -93,111l-26 31c-67,68 -188,171 -269,217 -12,8 -21,13 -34,22l-27 14c-7,5 -5,1 -8,10l95 -28c196,-75 268,-126 427,-274 89,-82 217,-268 267,-387 26,-60 35,-73 59,-143 12,-36 22,-66 33,-104 20,-71 35,-147 46,-230 21,-169 14,-348 -15,-516 -16,-95 -54,-228 -91,-313 -14,-33 -27,-62 -41,-93 -8,-15 -15,-27 -23,-43 -50,-98 -117,-193 -186,-274 -13,-14 -18,-20 -32,-33 -63,-61 -89,-96 -170,-154 -18,-12 -62,-46 -78,-51 16,-29 127,-134 161,-174 18,-21 39,-36 53,-60l-302 29c-13,2 -39,5 -51,5 -21,2 -32,4 -53,4 -45,2 -143,16 -205,20 -49,2 -103,13 -152,15 -21,1 -30,4 -52,4 6,11 26,28 36,37l435 420c27,26 52,50 79,76 14,14 26,25 40,39 13,13 26,28 40,37 -10,-52 -20,-104 -30,-157 -5,-29 -29,-142 -29,-161z"/>
    <path class="fil0" d="M2195 3974c-2,13 -9,17 -17,26l-115 150c-8,9 -16,14 -19,27 68,-18 245,-52 318,-67 55,-12 105,-23 160,-33 25,-5 56,-12 81,-17 15,-3 26,-6 39,-9 14,-2 29,-7 42,-8l-435 -345c-34,-26 -68,-59 -103,-80 1,16 12,47 16,62l34 121c4,15 15,46 16,62 -348,-213 -600,-625 -650,-1085 -18,-175 -9,-385 34,-553 47,-188 95,-305 189,-463 24,-42 49,-75 76,-114l88 -106c28,-30 100,-100 130,-124l69 -54c48,-37 77,-51 113,-76l80 -45c9,-4 12,-6 21,-10 13,-6 12,-3 18,-13l-109 26c-39,11 -68,22 -104,36l-96 46c-110,64 -152,95 -248,183 -56,51 -122,133 -168,196 -110,152 -209,386 -245,582 -51,285 -43,579 51,848 62,180 118,286 227,438 23,32 62,78 90,105l33 35c102,99 215,184 338,240 14,6 32,15 46,19z"/>
   </g>
  </g>
 </g>
</svg>
